<svg width="326" height="264" viewBox="0 0 326 264" fill="none" xmlns="http://www.w3.org/2000/svg">
<g clip-path="url(#clip0)" filter="url(#filter0_d)">
<path d="M312 150.398C312 194.079 288.756 209.331 260.083 209.331C231.41 209.331 208.166 194.079 208.166 150.398C208.166 106.717 260.083 51.1481 260.083 51.1481C260.083 51.1481 312 106.717 312 150.398Z" fill="#F2F2F2"/>
<path d="M258.192 202.649L258.724 166.092L280.852 120.866L258.807 160.358L259.046 143.92L274.297 111.199L259.109 139.57V139.57L259.539 110.006L275.87 83.9563L259.607 105.357L259.875 51.148L258.187 122.911L258.326 119.951L241.722 91.5586L258.06 125.634L256.513 158.651L256.466 157.775L237.325 127.896L256.409 160.871L256.215 165L256.18 165.062L256.196 165.401L252.271 249.17H257.515L258.145 205.902L277.181 173.008L258.192 202.649Z" fill="#3F3D56"/>
<path d="M28.0791 222.765C28.0791 234.577 21.7934 238.702 14.0395 238.702C6.28573 238.702 0 234.577 0 222.765C0 210.953 14.0395 195.925 14.0395 195.925C14.0395 195.925 28.0791 210.953 28.0791 222.765Z" fill="#F2F2F2"/>
<path d="M13.5283 236.895L13.6718 227.009L19.6558 214.779L13.6944 225.458L13.759 221.013L17.8832 212.165L13.7762 219.837L13.8924 211.842L18.3088 204.798L13.9109 210.585L13.9834 195.926L13.527 215.332L13.5642 214.531L9.07434 206.853L13.4923 216.068L13.0741 224.997L13.0616 224.76L7.8855 216.68L13.0457 225.597L12.9935 226.714L12.9843 226.73L12.9884 226.822L11.9269 249.475H13.3452L13.5152 237.775L18.6634 228.879L13.5283 236.895Z" fill="#3F3D56"/>
<path d="M1.97874 249.516H284.626" stroke="#3F3D56" stroke-width="2" stroke-miterlimit="10"/>
<path d="M284.777 238.888C284.777 246.878 280.526 249.667 275.281 249.667C275.16 249.667 275.038 249.666 274.917 249.663C274.674 249.657 274.433 249.644 274.196 249.626C269.462 249.252 265.785 246.319 265.785 238.888C265.785 231.198 274.581 221.495 275.242 220.777L275.243 220.775C275.268 220.748 275.281 220.734 275.281 220.734C275.281 220.734 284.777 230.898 284.777 238.888Z" fill="#2687F9"/>
<path d="M274.935 248.445L278.408 243.023L274.926 249.04L274.917 249.663C274.674 249.657 274.433 249.644 274.196 249.626L274.57 241.632L274.567 241.57L274.573 241.559L274.609 240.804L271.118 234.772L274.62 240.238L274.628 240.398L274.911 234.358L271.922 228.125L274.947 233.298L275.242 220.777L275.243 220.734V220.775L275.194 230.649L278.169 226.735L275.182 231.5L275.103 236.907L277.881 231.718L275.091 237.703L275.047 240.709L279.08 233.486L275.032 241.758L274.935 248.445Z" fill="#3F3D56"/>
<path d="M183.528 56.5761H181.705C181.302 56.5761 180.975 56.941 180.975 57.391V85.994C180.975 86.444 181.302 86.8089 181.705 86.8089H183.528C183.931 86.8089 184.258 86.444 184.258 85.994V57.391C184.258 56.941 183.931 56.5761 183.528 56.5761Z" fill="#3F3D56"/>
<path d="M73.2216 32.8913H72.3365C72.0722 32.8913 71.858 33.1307 71.858 33.4259V42.3096C71.858 42.6049 72.0722 42.8442 72.3365 42.8442H73.2216C73.4858 42.8442 73.7 42.6049 73.7 42.3096V33.4259C73.7 33.1307 73.4858 32.8913 73.2216 32.8913Z" fill="#3F3D56"/>
<path d="M73.3281 51.1133H72.3304C72.0325 51.1133 71.791 51.3831 71.791 51.7159V67.8346C71.791 68.1674 72.0325 68.4372 72.3304 68.4372H73.3281C73.626 68.4372 73.8675 68.1674 73.8675 67.8346V51.7159C73.8675 51.3831 73.626 51.1133 73.3281 51.1133Z" fill="#3F3D56"/>
<path d="M73.2873 74.4987H72.3378C72.0543 74.4987 71.8245 74.7555 71.8245 75.0722V91.3989C71.8245 91.7156 72.0543 91.9724 72.3378 91.9724H73.2873C73.5708 91.9724 73.8006 91.7156 73.8006 91.3989V75.0722C73.8006 74.7555 73.5708 74.4987 73.2873 74.4987Z" fill="#3F3D56"/>
<path d="M171.386 0H84.2626C77.9879 0 72.9013 5.68266 72.9013 12.6926V236.712C72.9013 243.722 77.9879 249.405 84.2626 249.405H171.386C177.66 249.405 182.747 243.722 182.747 236.712V12.6926C182.747 5.68266 177.66 0 171.386 0Z" fill="#3F3D56"/>
<path d="M131.758 7.44794H118.037C117.59 7.44794 117.228 7.85262 117.228 8.35182V10.0238C117.228 10.523 117.59 10.9277 118.037 10.9277H131.758C132.205 10.9277 132.567 10.523 132.567 10.0238V8.35182C132.567 7.85262 132.205 7.44794 131.758 7.44794Z" fill="#E6E8EC"/>
<path d="M136.654 11.1615C137.629 11.1615 138.42 10.2779 138.42 9.18781C138.42 8.09775 137.629 7.21408 136.654 7.21408C135.678 7.21408 134.887 8.09775 134.887 9.18781C134.887 10.2779 135.678 11.1615 136.654 11.1615Z" fill="#E6E8EC"/>
<path d="M175.964 16.2436V233.164C175.963 235.748 175.044 238.227 173.407 240.054C171.771 241.881 169.552 242.907 167.239 242.907H88.4096C86.0961 242.907 83.8773 241.881 82.2411 240.054C80.605 238.227 79.6855 235.748 79.6851 233.164V16.2436C79.685 14.9636 79.9106 13.6961 80.349 12.5135C80.7874 11.3309 81.43 10.2564 82.2402 9.35127C83.0504 8.44617 84.0122 7.72822 85.0707 7.23844C86.1293 6.74865 87.2638 6.49661 88.4096 6.49673H100.206V8.18935C100.206 10.3177 100.963 12.3588 102.31 13.8638C103.658 15.3688 105.484 16.2145 107.39 16.2151H147.479C149.384 16.2151 151.212 15.3696 152.559 13.8644C153.906 12.3593 154.663 10.3179 154.663 8.18935V6.49673H167.239C168.385 6.49661 169.519 6.74865 170.578 7.23844C171.636 7.72822 172.598 8.44617 173.408 9.35127C174.219 10.2564 174.861 11.3309 175.3 12.5135C175.738 13.6961 175.964 14.9636 175.964 16.2436Z" fill="white"/>
<path d="M176.018 56.7838H79.5737V180.531H176.018V56.7838Z" fill="#F2F2F2"/>
<path d="M86.5762 197.654L86.0685 197.142C84.2653 195.293 83.0749 194.093 83.0749 192.597C83.0705 192.313 83.1171 192.03 83.2122 191.766C83.3072 191.502 83.4487 191.262 83.6283 191.06C83.8078 190.858 84.0218 190.699 84.2575 190.591C84.4933 190.483 84.746 190.43 85.0006 190.433C85.3012 190.435 85.5978 190.509 85.8699 190.652C86.142 190.795 86.383 191.002 86.5762 191.259C86.7694 191.002 87.0104 190.795 87.2825 190.652C87.5546 190.509 87.8512 190.435 88.1518 190.433C88.4065 190.43 88.6591 190.483 88.8949 190.591C89.1306 190.699 89.3446 190.858 89.5241 191.06C89.7037 191.262 89.8452 191.502 89.9402 191.766C90.0353 192.03 90.0819 192.313 90.0775 192.597C90.0775 194.093 88.887 195.293 87.084 197.142L86.5762 197.654Z" fill="#FF6584"/>
<path d="M104.984 195.762L105.966 196.075C106.141 195.508 106.437 194.996 106.829 194.585C107.221 194.174 107.697 193.875 108.215 193.715C108.733 193.556 109.278 193.539 109.803 193.667C110.329 193.796 110.818 194.065 111.229 194.452L109.73 196.075H113.472V192.011L111.964 193.626C111.425 193.098 110.777 192.728 110.078 192.548C109.379 192.368 108.652 192.385 107.96 192.596C107.268 192.808 106.634 193.208 106.115 193.76C105.596 194.313 105.207 195.001 104.984 195.762L104.984 195.762Z" fill="#F2F2F2"/>
<path d="M85.9396 47.5384C88.4007 47.5384 90.3958 45.3095 90.3958 42.56C90.3958 39.8106 88.4007 37.5817 85.9396 37.5817C83.4785 37.5817 81.4835 39.8106 81.4835 42.56C81.4835 45.3095 83.4785 47.5384 85.9396 47.5384Z" fill="#2687F9"/>
<path d="M135.276 39.7153H93.897V45.4048H135.276V39.7153Z" fill="#2687F9"/>
<path d="M124.454 206.134H83.075V211.823H124.454V206.134Z" fill="#F2F2F2"/>
<path d="M170.607 218.537H83.075V224.226H170.607V218.537Z" fill="#F2F2F2"/>
<path d="M100.9 197.294L99.8031 195.151C100.065 194.447 100.091 193.662 99.8765 192.938C99.6616 192.215 99.2202 191.603 98.6336 191.215C98.0469 190.826 97.3544 190.687 96.6834 190.823C96.0123 190.96 95.4079 191.362 94.9813 191.957C94.5547 192.551 94.3345 193.298 94.3613 194.059C94.3881 194.82 94.6601 195.545 95.1272 196.101C95.5943 196.656 96.2251 197.004 96.9037 197.081C97.5822 197.158 98.2628 196.959 98.8204 196.52L100.9 197.294Z" fill="#F2F2F2"/>
<path d="M119.635 85.8061H119.635C117.997 86.1805 116.441 86.9118 115.056 87.9581C113.671 89.0043 112.484 90.3452 111.563 91.9039C110.642 93.4627 110.004 95.2089 109.687 97.0429C109.37 98.8769 109.379 100.763 109.715 102.593L112.342 116.938L115.284 116.265L115.492 114.745L116.108 116.077L133.994 111.987L134.202 110.467L134.818 111.799L137.289 111.234L134.661 96.8894C134.326 95.0594 133.672 93.3211 132.735 91.7738C131.798 90.2264 130.598 88.9003 129.203 87.8711C127.808 86.8419 126.245 86.1298 124.603 85.7755C122.961 85.4212 121.273 85.4316 119.635 85.8061Z" fill="#2F2E41"/>
<path d="M141.801 129.816L157.079 140.128L155.169 145.107L140.846 137.639L141.801 129.816Z" fill="#9F616A"/>
<path d="M122.385 141.551C122.385 141.551 91.5098 141.551 86.4171 150.44C81.3243 159.33 85.4622 171.776 101.377 174.621C117.292 177.466 165.673 178.888 169.493 168.22C173.312 157.552 170.447 151.507 170.447 151.507C170.447 151.507 153.896 138.706 122.385 141.551Z" fill="#2687F9"/>
<path d="M149.758 150.085L166.628 157.197C166.628 157.197 173.63 151.507 170.129 145.107C166.628 138.706 150.713 101.724 150.713 101.724C150.713 101.724 146.257 94.6121 151.986 90.7005C157.716 86.789 159.944 93.1897 159.944 93.1897C159.944 93.1897 159.625 94.6121 161.853 93.5453C164.082 92.4785 168.219 96.0344 165.991 101.724C163.763 107.413 162.172 108.836 166.946 108.48C168.67 108.352 170.187 106.971 171.421 105.26C173.786 101.98 172.73 99.3376 172.551 95.13C172.245 87.9223 171.744 83.2226 170.129 80.3883C167.901 76.4767 164.718 73.2764 156.442 75.0544C148.167 76.8323 136.071 85.7222 138.936 98.5236C141.801 111.325 148.167 125.549 148.167 125.549C148.167 125.549 152.623 145.462 149.758 150.085Z" fill="#2687F9"/>
<path opacity="0.1" d="M149.758 150.085C147.008 150.931 143.555 151.344 139.837 151.472C133.35 151.696 126.048 151.056 120.217 150.33C113.918 149.544 109.334 148.662 109.334 148.662C111.464 146.444 114.736 145.565 118.581 145.245C123.355 144.847 129.015 145.302 134.48 145.107C136.495 145.028 138.511 145.197 140.493 145.611C146.521 146.895 149.758 150.085 149.758 150.085Z" fill="black"/>
<path d="M122.225 111.858C127.148 111.858 131.138 107.401 131.138 101.902C131.138 96.4028 127.148 91.9451 122.225 91.9451C117.303 91.9451 113.313 96.4028 113.313 101.902C113.313 107.401 117.303 111.858 122.225 111.858Z" fill="#9F616A"/>
<path d="M121.111 109.903C121.111 109.903 122.703 116.659 121.111 117.015C119.52 117.37 115.7 119.148 115.7 119.148L120.475 121.282L129.387 130.527L137.026 134.794L140.846 133.372V125.549L135.116 115.592C135.116 115.592 131.297 117.015 130.342 112.392C129.387 107.769 127.477 105.991 127.477 105.991L121.111 109.903Z" fill="#9F616A"/>
<path d="M118.883 119.504H115.064C115.064 119.504 108.38 121.993 104.56 127.682C100.74 133.372 94.6928 139.061 94.6928 139.061C94.6928 139.061 90.5549 145.462 92.783 154.352C95.0111 163.242 98.1941 169.643 101.059 167.865C103.923 166.087 96.9209 153.285 96.9209 153.285L98.8307 145.462C98.8307 145.462 108.698 132.661 112.836 133.016C116.974 133.372 117.292 137.283 117.292 137.283L126.204 140.128L129.069 133.372L127.477 126.26L118.883 119.504Z" fill="#9F616A"/>
<path d="M141.801 141.906C141.199 143.06 140.758 144.309 140.493 145.611C140.095 147.535 139.876 149.498 139.837 151.472C133.35 151.696 126.048 151.056 120.217 150.33C119.701 148.794 119.135 147.027 118.581 145.245C117.088 140.43 115.7 135.516 115.7 134.794C115.7 133.372 122.385 135.861 123.976 135.505C125.568 135.15 126.204 129.46 123.976 126.616C121.748 123.771 115.223 118.97 115.223 118.97L117.451 118.259C117.451 118.259 122.385 122.348 132.57 129.105C142.756 135.861 138.618 125.193 138.618 125.193L132.729 115.059H135.276C135.276 115.059 140.209 124.482 142.756 128.749C145.302 133.016 144.347 137.283 141.801 141.906Z" fill="#3F3D56"/>
<path d="M128.532 88.4692L112.39 92.1596L114.417 103.226L130.559 99.5353L128.532 88.4692Z" fill="#2F2E41"/>
<path d="M163.286 89.8115C165.923 89.8115 168.06 87.4234 168.06 84.4776C168.06 81.5318 165.923 79.1437 163.286 79.1437C160.649 79.1437 158.511 81.5318 158.511 84.4776C158.511 87.4234 160.649 89.8115 163.286 89.8115Z" fill="#3F3D56"/>
<path d="M163.286 87.3224C164.692 87.3224 165.832 86.0487 165.832 84.4776C165.832 82.9065 164.692 81.6328 163.286 81.6328C161.879 81.6328 160.739 82.9065 160.739 84.4776C160.739 86.0487 161.879 87.3224 163.286 87.3224Z" fill="#FFFAFA"/>
<path d="M23.1516 146.047L22.8263 148.853C22.7161 149.803 22.6059 150.754 22.5466 151.709C22.3494 154.888 22.7171 158.08 22.6203 161.265C22.5458 163.717 22.1961 166.167 22.3651 168.613C22.5144 170.776 23.0657 172.877 23.6138 174.958L24.3972 177.934C24.4036 178.023 24.4282 178.109 24.4693 178.186C24.5103 178.262 24.5666 178.327 24.6337 178.375C24.7009 178.424 24.7771 178.454 24.8564 178.464C24.9358 178.474 25.0161 178.463 25.0912 178.433L28.558 178.082C28.336 176.945 28.0891 175.759 27.9698 174.603C27.8754 173.689 27.8187 172.77 27.7595 171.852C27.575 168.99 27.3662 166.13 27.1573 163.27L26.7904 158.246C26.6312 156.067 26.4702 153.875 25.9791 151.758C25.4897 149.615 24.5161 147.649 23.1516 146.047Z" fill="#267AF9"/>
<path opacity="0.1" d="M23.1516 146.047L22.8263 148.853C22.7161 149.803 22.6059 150.754 22.5466 151.709C22.3494 154.888 22.7171 158.08 22.6203 161.265C22.5458 163.717 22.1961 166.167 22.3651 168.613C22.5144 170.776 23.0657 172.877 23.6138 174.958L24.3972 177.934C24.4036 178.023 24.4282 178.109 24.4693 178.186C24.5103 178.262 24.5666 178.327 24.6337 178.375C24.7009 178.424 24.7771 178.454 24.8564 178.464C24.9358 178.474 25.0161 178.463 25.0912 178.433L28.558 178.082C28.336 176.945 28.0891 175.759 27.9698 174.603C27.8754 173.689 27.8187 172.77 27.7595 171.852C27.575 168.99 27.3662 166.13 27.1573 163.27L26.7904 158.246C26.6312 156.067 26.4702 153.875 25.9791 151.758C25.4897 149.615 24.5161 147.649 23.1516 146.047Z" fill="black"/>
<path d="M29.3276 242.267C29.1235 242.714 28.9458 243.175 28.7958 243.648C28.3977 244.953 28.3376 246.353 28.281 247.73C28.2538 247.996 28.2759 248.265 28.3458 248.521C28.516 249.016 29.0064 249.267 29.4649 249.405C31.385 249.982 33.4096 249.439 35.39 249.241C37.3339 249.047 39.314 249.187 41.2179 248.708C41.4993 248.649 41.7713 248.543 42.025 248.395C42.5076 248.045 42.8677 247.519 43.0447 246.907C43.1027 246.751 43.1416 246.586 43.1606 246.418C43.2234 245.694 42.6579 245.064 42.042 244.825C41.426 244.587 40.7563 244.627 40.1079 244.552C38.7741 244.399 37.5226 243.759 36.5472 242.731C35.5718 241.703 34.9268 240.345 34.7121 238.866C34.6891 238.708 31.5059 238.801 31.1708 239.007C30.7787 239.247 30.5413 239.847 30.3204 240.252C29.9634 240.907 29.6325 241.579 29.3276 242.267Z" fill="#3F3D56"/>
<path opacity="0.1" d="M29.3276 242.267C29.1235 242.714 28.9458 243.175 28.7958 243.648C28.3977 244.953 28.3376 246.353 28.281 247.73C28.2538 247.996 28.2759 248.265 28.3458 248.521C28.516 249.016 29.0064 249.267 29.4649 249.405C31.385 249.982 33.4096 249.439 35.39 249.241C37.3339 249.047 39.314 249.187 41.2179 248.708C41.4993 248.649 41.7713 248.543 42.025 248.395C42.5076 248.045 42.8677 247.519 43.0447 246.907C43.1027 246.751 43.1416 246.586 43.1606 246.418C43.2234 245.694 42.6579 245.064 42.042 244.825C41.426 244.587 40.7563 244.627 40.1079 244.552C38.7741 244.399 37.5226 243.759 36.5472 242.731C35.5718 241.703 34.9268 240.345 34.7121 238.866C34.6891 238.708 31.5059 238.801 31.1708 239.007C30.7787 239.247 30.5413 239.847 30.3204 240.252C29.9634 240.907 29.6325 241.579 29.3276 242.267Z" fill="black"/>
<path d="M34.6055 242.604C34.4013 243.051 34.2237 243.512 34.0736 243.985C33.6756 245.29 33.6154 246.69 33.5588 248.067C33.5316 248.333 33.5537 248.602 33.6237 248.858C33.7938 249.353 34.2843 249.604 34.7427 249.742C36.6629 250.319 38.6874 249.776 40.6679 249.578C42.6117 249.384 44.5918 249.524 46.4957 249.045C46.7771 248.986 47.0491 248.881 47.3028 248.732C47.7854 248.382 48.1455 247.856 48.3226 247.244C48.3805 247.088 48.4194 246.923 48.4384 246.755C48.5012 246.031 47.9358 245.401 47.3198 245.163C46.7039 244.924 46.0341 244.964 45.3857 244.889C44.0519 244.736 42.8004 244.096 41.825 243.068C40.8496 242.04 40.2046 240.682 39.9899 239.203C39.9669 239.045 36.7837 239.139 36.4487 239.344C36.0565 239.584 35.8192 240.184 35.5982 240.59C35.2413 241.244 34.9104 241.916 34.6055 242.604Z" fill="#3F3D56"/>
<path d="M48.3713 207.502C48.4123 214.643 46.5534 221.622 44.373 228.335C43.5098 230.992 42.5938 233.626 41.6251 236.237C41.0515 237.785 40.4053 239.501 41.0199 241.029C39.2512 240.277 37.4403 239.833 35.5731 240.18C36.2839 238.562 36.217 236.678 36.2487 234.876C36.3104 232.43 36.5461 229.993 36.9536 227.588C37.5791 223.929 38.6521 220.384 40.1426 217.052C40.4447 216.35 40.653 215.601 40.7607 214.831C40.9542 213.119 40.8651 211.381 40.4979 209.704C39.8166 205.99 38.5233 202.449 36.6838 199.262C36.678 199.333 36.6721 199.405 36.6651 199.476C36.5538 200.538 36.3937 201.593 36.1854 202.636C35.7678 204.848 35.2811 207.061 35.3538 209.285C35.4321 211.643 35.3013 214.005 34.9633 216.334C34.8559 217.249 34.6426 218.145 34.3288 218.999C34.1247 219.51 33.8584 219.991 33.6977 220.521C33.5383 221.132 33.4551 221.766 33.4503 222.403C33.2122 227.781 33.4468 234.662 34.4308 239.933C32.7726 239.848 31.1247 240.267 29.6632 241.146C28.4739 237.398 27.7162 232.073 27.1497 228.125C26.5082 223.462 26.6386 218.706 27.5344 214.095C27.813 212.556 27.9175 210.985 27.8452 209.417C27.7186 206.295 27.0313 203.24 26.3487 200.21C26.0015 198.672 25.6544 197.133 25.3072 195.594C24.8134 193.402 24.3189 191.209 23.8235 189.016C23.4951 187.558 23.1632 186.068 23.2664 184.568C23.3389 183.745 23.4935 182.934 23.7273 182.15C24.4662 179.482 25.5708 176.957 27.0019 174.667C32.7008 175.025 38.4689 174.429 44.1596 173.94C44.4363 173.879 44.7235 173.933 44.9665 174.093C45.1597 174.313 45.2747 174.604 45.2902 174.912C46.0033 179.423 46.716 183.935 47.4283 188.446C47.7752 190.33 47.9788 192.243 48.037 194.165C48.0476 196.081 47.7696 197.99 47.8341 199.904C47.9209 202.483 48.3572 204.922 48.3713 207.502Z" fill="#2F2E41"/>
<path opacity="0.1" d="M36.6651 199.476C36.5538 200.538 36.3937 201.593 36.1854 202.636C34.9457 200.241 33.6098 197.906 32.4686 195.451C32.1742 194.818 31.8939 194.177 31.6124 193.538C31.3321 192.898 31.0518 192.259 30.7715 191.62C30.6143 191.261 30.456 190.9 30.3141 190.532C30.0823 190.002 29.9044 189.444 29.784 188.869C30.1991 188.784 31.2219 190.034 31.5292 190.36C32.1595 191.055 32.7547 191.788 33.3119 192.556C33.9861 193.409 34.605 194.314 35.1638 195.265C35.878 196.561 36.3859 197.986 36.6651 199.476Z" fill="black"/>
<path d="M41.414 133.744C41.414 133.744 38.2473 139.379 38.8337 140.558C39.4201 141.737 28.8644 139.51 28.8644 139.51C28.8644 139.51 34.6114 133.875 34.025 131.517C33.4386 129.158 41.414 133.744 41.414 133.744Z" fill="#EFB7B9"/>
<path d="M38.5991 135.448C42.5504 135.448 45.7535 131.869 45.7535 127.455C45.7535 123.041 42.5504 119.462 38.5991 119.462C34.6479 119.462 31.4447 123.041 31.4447 127.455C31.4447 131.869 34.6479 135.448 38.5991 135.448Z" fill="#EFB7B9"/>
<path d="M41.52 139.652C40.7542 138.462 39.7147 137.525 38.5113 136.94C37.8185 136.663 37.1024 136.466 36.3738 136.351L33.5195 135.79C32.8199 135.653 32.0712 135.521 31.4222 135.844C31.0905 136.031 30.7885 136.278 30.5283 136.574C29.5361 137.6 28.5747 138.729 27.3309 139.322C26.9903 139.484 26.6342 139.603 26.2942 139.766C24.9025 140.436 23.8619 141.834 23.2707 143.392C22.6505 145.027 22.6325 146.8 22.6815 148.575C22.6799 149.187 22.7339 149.798 22.8424 150.399C22.9864 150.97 23.1673 151.529 23.3838 152.071C23.778 153.229 24.1081 154.413 24.3723 155.616C25.1118 158.778 25.7265 161.973 26.2166 165.199C26.2593 165.663 26.3814 166.114 26.5763 166.526C26.8517 166.936 27.185 167.294 27.5631 167.585C27.8625 167.862 28.1392 168.168 28.39 168.5C28.5124 168.642 28.6021 168.815 28.6514 169.004C28.744 169.481 28.3666 169.89 28.0603 170.238C27.4241 170.963 26.9642 171.857 26.7242 172.837C26.5747 173.038 26.4989 173.294 26.512 173.555C26.5732 173.736 26.5961 173.93 26.5786 174.122C26.5199 174.297 26.4281 174.457 26.3096 174.589C26.1732 174.788 26.0761 175.016 26.0249 175.26C25.9737 175.504 25.9696 175.757 26.0128 176.002C28.2304 177.079 30.6037 177.699 33.0185 177.834C33.6099 177.865 34.2036 177.866 34.7911 177.946C35.2102 178.004 35.6242 178.103 36.0435 178.157C36.6536 178.221 37.2668 178.239 37.879 178.21C41.0634 178.139 44.3412 178.047 47.2653 176.636C47.5408 174.961 46.9473 173.254 46.5751 171.602C45.9831 168.975 45.8339 166.25 45.3935 163.586C45.092 161.762 44.6541 159.968 44.403 158.135C44.152 156.302 44.0931 154.401 44.5441 152.617C44.9438 151.036 45.0645 149.426 45.4788 147.849C45.8931 146.272 46.1834 144.563 45.7157 143.005C45.1358 141.074 43.3412 139.545 41.52 139.652Z" fill="#267AF9"/>
<path d="M45.0335 123.218C45.3814 121.798 44.6972 120.321 43.8787 119.168C42.9992 117.93 41.8628 116.812 40.4752 116.501C39.3476 116.248 38.1791 116.553 37.0325 116.452C36.0163 116.361 35.0425 115.954 34.0314 115.808C33.1169 115.699 32.1929 115.738 31.2884 115.924C30.4286 116.065 29.5883 116.327 28.7879 116.705C25.7424 118.212 23.9579 121.936 23.5439 125.628C23.1298 129.321 23.8558 133.041 24.5776 136.674L25.23 139.958C25.9091 143.376 26.5904 146.812 26.7721 150.307C26.9538 153.803 26.6148 157.391 25.3277 160.583C29.4891 158.086 32.7133 154.008 34.4174 149.086C34.8802 147.735 35.2228 146.332 35.7355 145.003C36.1765 143.859 36.7411 142.776 37.1321 141.61C37.5729 140.293 37.7846 138.894 37.7558 137.488C37.7335 136.431 37.5753 135.379 37.6028 134.323C37.6304 133.266 37.871 132.164 38.5247 131.4C39.1058 130.721 39.9315 130.394 40.6804 129.967C41.858 129.291 42.8868 128.332 43.6925 127.159C44.164 126.473 44.1891 126.179 44.3091 125.388C44.4257 124.618 44.8503 123.965 45.0335 123.218Z" fill="#2F2E41"/>
<path d="M45.0434 183.263C45.1159 184.085 44.9823 184.927 45.1431 185.733C45.264 186.339 45.5449 186.889 45.7101 187.481C45.8741 188.168 45.9585 188.875 45.9611 189.586C45.985 190.182 45.9441 190.907 45.4722 191.186C45.265 191.309 45.0164 191.311 44.8008 191.414C44.5851 191.517 44.4 191.809 44.5235 192.032C44.6274 192.219 44.8631 192.221 45.0563 192.265C45.2495 192.31 45.4621 192.533 45.35 192.715C45.3049 192.774 45.2449 192.817 45.1778 192.837C44.9803 192.903 44.7933 193.004 44.6236 193.135C44.5395 193.202 44.4736 193.294 44.4334 193.4C44.3931 193.506 44.38 193.623 44.3955 193.737C44.4071 193.792 44.4298 193.843 44.4617 193.887C44.4937 193.93 44.5342 193.965 44.58 193.989C44.6259 194.013 44.676 194.024 44.7265 194.023C44.777 194.022 44.8266 194.008 44.8715 193.982C44.7849 194.188 44.7376 194.413 44.7326 194.641C45.4876 195.003 46.3374 194.529 47.0479 194.068C47.356 193.877 47.6535 193.666 47.9386 193.434C48.5108 192.941 48.9663 192.299 49.2655 191.563C49.5648 190.828 49.6986 190.023 49.6556 189.217C49.6226 188.811 49.5669 188.408 49.4888 188.01C49.3787 187.318 49.2333 186.634 49.0533 185.96C48.8502 185.25 48.571 184.57 48.3316 183.874C47.8214 182.391 47.493 180.838 47.0336 179.334C47.027 179.262 47.0072 179.192 46.9754 179.13C46.9436 179.067 46.9006 179.012 46.8489 178.968C46.7973 178.925 46.7382 178.894 46.6753 178.877C46.6124 178.86 46.5471 178.858 46.4835 178.871C45.9658 178.841 45.4469 178.894 44.9429 179.029C44.6383 179.129 44.1386 179.347 44.0021 179.704C43.879 180.025 44.0852 180.313 44.2161 180.588C44.6444 181.411 44.9254 182.32 45.0434 183.263Z" fill="#EFB7B9"/>
<path opacity="0.1" d="M44.5594 143.109C44.7121 143.282 44.8399 143.481 44.9384 143.698C45.9549 145.762 45.9678 148.232 46.0156 150.588C46.0694 153.239 46.1992 155.887 46.3291 158.535L46.7174 166.453C46.7546 167.21 46.7917 167.967 46.8867 168.718C47.3436 168.846 47.3625 169.506 47.3095 170.029C46.9825 173.26 46.1688 176.587 47.021 179.697C47.0535 179.857 47.1221 180.005 47.2202 180.128C46.7907 179.976 46.3308 179.969 45.8978 180.107C45.473 180.208 45.0645 180.381 44.6412 180.489C44.1026 180.626 43.492 180.685 43.1245 181.145C42.7093 179.748 42.3787 178.321 42.1348 176.874C41.9331 175.559 41.8782 174.192 41.3986 172.97C41.2049 172.477 40.9462 172.019 40.7102 171.55C39.4681 169.078 38.86 166.283 38.2657 163.527C37.9989 162.221 37.9349 160.873 38.0766 159.542C38.161 158.935 38.2106 158.322 38.225 157.708C38.1871 157.06 38.1111 156.415 37.9974 155.778C37.7465 153.91 37.8641 152.003 38.3418 150.191C38.7868 148.509 39.1771 146.738 40.1079 145.325C41.0386 143.912 42.9889 143.133 44.5594 143.109Z" fill="black"/>
<path d="M44.9112 142.847C45.0639 143.02 45.1918 143.219 45.2902 143.436C46.3067 145.5 46.3196 147.97 46.3674 150.325C46.4212 152.977 46.5511 155.625 46.6809 158.273L47.0693 166.191C47.1064 166.948 47.1436 167.705 47.2386 168.456C47.6954 168.584 47.7143 169.244 47.6614 169.767C47.3343 172.998 46.5206 176.325 47.3728 179.435C47.4054 179.595 47.4739 179.743 47.5721 179.865C47.1426 179.714 46.6827 179.707 46.2496 179.845C45.8248 179.945 45.4164 180.119 44.9931 180.227C44.4545 180.364 43.8439 180.422 43.4764 180.883C43.0612 179.486 42.7305 178.059 42.4867 176.612C42.2849 175.297 42.23 173.93 41.7505 172.708C41.5568 172.215 41.2981 171.757 41.062 171.287C39.82 168.816 39.2119 166.021 38.6176 163.265C38.3507 161.959 38.2868 160.61 38.4285 159.28C38.5129 158.673 38.5624 158.06 38.5768 157.446C38.539 156.798 38.463 156.153 38.3493 155.516C38.0984 153.648 38.2159 151.741 38.6936 149.929C39.1387 148.247 39.529 146.476 40.4597 145.063C41.3905 143.649 43.3407 142.871 44.9112 142.847Z" fill="#267AF9"/>
<g opacity="0.1">
<path opacity="0.1" d="M43.8787 119.168C42.9992 117.93 41.8628 116.812 40.4752 116.501C39.3476 116.248 38.1791 116.553 37.0326 116.452C36.0163 116.361 35.0425 115.954 34.0315 115.808C33.1169 115.699 32.1929 115.738 31.2884 115.924C30.4286 116.065 29.5883 116.327 28.7879 116.705C28.3554 116.92 27.9426 117.181 27.5554 117.486C28.2689 117.184 29.0092 116.968 29.7637 116.842C30.6682 116.655 31.5922 116.616 32.5067 116.725C33.5178 116.872 34.4916 117.279 35.5078 117.369C36.6544 117.47 37.8228 117.165 38.9505 117.418C40.3381 117.729 41.4745 118.847 42.354 120.085C43.1725 121.238 43.8567 122.716 43.5088 124.135C43.3256 124.882 42.901 125.535 42.7843 126.305C42.6644 127.097 42.6393 127.39 42.1678 128.076C41.561 128.959 40.8269 129.722 39.9957 130.336C40.2251 130.214 40.4561 130.095 40.6804 129.967C41.858 129.291 42.8868 128.332 43.6925 127.159C44.164 126.473 44.1891 126.179 44.3091 125.388C44.4257 124.618 44.8503 123.965 45.0335 123.218C45.3814 121.798 44.6972 120.321 43.8787 119.168Z" fill="black"/>
<path opacity="0.1" d="M38.5247 131.4C38.6477 131.258 38.7815 131.128 38.9247 131.012C38.2411 131.382 37.5219 131.707 37 132.317C36.3463 133.081 36.1057 134.184 36.0781 135.24C36.0505 136.297 36.2088 137.348 36.2311 138.405C36.2599 139.811 36.0482 141.21 35.6074 142.528C35.2164 143.694 34.6518 144.777 34.2108 145.92C33.6981 147.249 33.3555 148.652 32.8927 150.003C31.4145 154.27 28.7893 157.919 25.3784 160.451C25.3611 160.495 25.3455 160.539 25.3277 160.583C29.4891 158.086 32.7133 154.008 34.4174 149.086C34.8802 147.735 35.2229 146.332 35.7355 145.003C36.1765 143.859 36.7411 142.776 37.1321 141.61C37.5729 140.293 37.7846 138.894 37.7558 137.488C37.7335 136.431 37.5753 135.379 37.6028 134.323C37.6304 133.266 37.871 132.164 38.5247 131.4Z" fill="black"/>
</g>
<path d="M195.646 248.876C195.306 249.335 194.722 249.428 194.195 249.488C193.513 249.599 192.822 249.614 192.137 249.532C191.323 249.397 190.836 249.914 190.092 249.516C189.643 249.276 188.95 249.757 188.501 249.516C187.884 249.187 185.756 249.118 185.381 248.475C185.005 247.832 185.044 246.816 185.637 246.436C185.805 246.347 185.979 246.271 186.157 246.209C187.15 245.767 189.162 242.436 190.219 242.265C190.744 242.238 191.264 242.375 191.723 242.661C192.765 243.178 194.605 243.586 195.059 244.897C195.414 245.919 196.383 247.877 195.646 248.876Z" fill="#2F2E41"/>
<path d="M203.132 248.612C203.473 249.072 204.056 249.164 204.584 249.225C205.265 249.335 205.957 249.35 206.642 249.269C207.455 249.133 208.447 249.914 209.19 249.516C209.64 249.276 210.332 249.401 210.782 249.161C211.398 248.831 214.296 249.566 214.671 248.923C215.046 248.28 215.008 247.263 214.415 246.884C214.247 246.794 214.073 246.718 213.895 246.656C212.902 246.215 209.616 242.172 208.559 242.001C208.035 241.974 207.514 242.111 207.056 242.397C206.014 242.914 204.174 243.322 203.719 244.634C203.365 245.656 202.396 247.614 203.132 248.612Z" fill="#2F2E41"/>
<path d="M206.424 176.001C206.749 176.7 207.034 177.423 207.275 178.163C210.165 186.703 210.407 196.035 210.526 205.163C210.516 206.648 210.592 208.131 210.753 209.604C210.874 210.538 211.065 211.483 210.942 212.417C210.835 213.224 210.495 214.021 210.631 214.823C210.692 215.182 210.846 215.516 210.907 215.876C210.954 216.27 210.944 216.67 210.878 217.061L210.491 220.282C210.27 222.116 209.761 223.883 209.788 225.733C209.807 226.996 209.826 228.26 209.952 229.515C210.08 230.789 210.318 232.053 210.33 233.335C210.339 234.295 210.221 235.25 210.145 236.206C210.038 237.556 210.014 238.913 210.073 240.267C210.118 241.311 210.225 242.394 210.72 243.28C210.165 244.169 209.616 244.965 208.728 245.401C206.922 246.285 204.851 245.985 202.9 245.669C203.008 245.266 203.175 244.811 203.019 244.428C202.928 244.243 202.815 244.072 202.684 243.919C202.259 243.243 201.963 242.475 201.816 241.664C201.58 240.703 201.344 239.668 201.829 238.745C201.996 238.417 202.07 238.039 202.04 237.663C201.636 231.609 200.431 225.345 201.541 219.404C201.66 218.77 201.801 218.14 201.867 217.496C201.927 216.57 201.937 215.641 201.897 214.714L201.873 213.424C201.816 212.047 201.866 210.635 201.618 209.273C201.441 208.298 201.111 207.317 201.518 206.323C201.607 206.095 201.648 205.848 201.637 205.599C201.627 205.351 201.566 205.109 201.458 204.891C200.601 203.214 199.912 201.436 199.403 199.591C199.297 199.075 199.152 198.57 198.97 198.082C198.721 197.567 198.435 197.076 198.115 196.613C197.149 195.047 196.571 193.23 196.003 191.436C196.064 191.271 196.017 191.043 195.859 191.066C195.703 191.111 195.569 191.222 195.487 191.377C194.71 192.544 194.644 194.102 194.609 195.557C194.55 196.908 194.571 198.263 194.671 199.611C194.738 200.318 194.848 201.019 194.905 201.726C194.979 203.047 194.96 204.371 194.849 205.688L194.452 212.169C194.398 212.704 194.427 213.246 194.537 213.771C194.792 214.679 194.916 215.627 194.905 216.579C194.8 220.493 195.103 224.408 195.808 228.244C196.001 229.304 196.226 230.356 196.39 231.422C196.778 233.932 196.831 236.491 196.883 239.038C196.915 240.604 196.938 242.226 196.386 243.666C196.17 244.11 196.012 244.586 195.915 245.079C195.913 245.334 195.883 245.587 195.825 245.833C195.663 246.299 195.177 246.498 194.739 246.604C193.918 246.804 193.075 246.871 192.236 246.804C192.039 246.8 191.845 246.752 191.665 246.662C191.352 246.481 191.186 246.097 190.948 245.807C190.435 245.181 189.582 244.989 189.114 244.319C188.53 243.483 188.775 242.27 189.123 241.282C189.471 240.294 189.902 239.221 189.602 238.214C189.249 237.026 187.998 236.387 187.662 235.193C188.621 230.379 186.266 225.4 186.468 220.474C186.515 219.326 186.693 218.187 186.697 217.039C186.706 214.08 185.559 211.201 185.747 208.249C186.227 200.749 183.94 193.261 182.972 185.82C182.788 184.709 182.719 183.579 182.767 182.45C182.911 180.588 183.685 178.854 184.616 177.301C185.283 176.188 186.085 175.098 187.189 174.577C188.099 174.149 189.119 174.15 190.106 174.159C192.569 174.18 195.033 174.202 197.496 174.251C199.172 174.225 200.846 174.392 202.492 174.751C203.824 175.091 205.071 175.785 206.424 176.001Z" fill="#2F2E41"/>
<path d="M166.622 141.809C166.383 140.504 166.834 139.109 166.481 137.837C166.354 137.378 166.042 136.901 165.612 136.915C165.195 136.928 164.912 137.384 164.542 137.6C163.946 137.949 163.221 137.632 162.625 137.283C162.029 136.934 161.364 136.538 160.718 136.748C160.642 137.2 160.915 137.632 161.213 137.95C161.542 138.228 161.815 138.582 162.013 138.987C162.11 139.424 162.147 139.876 162.122 140.326C162.19 141.36 162.776 142.25 163.361 143.054C164.304 144.349 165.306 145.59 166.362 146.771C166.36 146.769 167.964 144.552 167.933 144.165C167.904 143.799 167.364 143.457 167.168 143.163C166.9 142.762 166.713 142.299 166.622 141.809Z" fill="#A1616A"/>
<path d="M214.386 169.118C214.529 169.533 214.636 169.962 214.706 170.399C215.12 172.64 215.38 174.911 215.638 177.181C215.706 177.787 215.775 178.393 215.796 179.003C215.869 180.452 215.602 181.897 215.022 183.195C214.432 184.496 213.43 185.506 212.21 186.026C211.834 186.175 211.309 186.202 211.145 185.796C211.086 185.608 211.088 185.404 211.148 185.217C211.297 184.612 211.599 184.07 211.794 183.483C212.085 182.605 212.133 181.651 211.934 180.743C211.856 180.395 211.694 180.008 211.379 179.938C211.536 180.739 211.404 181.577 211.012 182.27C210.923 182.463 210.769 182.609 210.583 182.676C210.453 182.69 210.323 182.655 210.213 182.576C210.104 182.497 210.021 182.379 209.979 182.241C209.903 181.961 209.886 181.666 209.931 181.378C210.032 179.922 210.23 178.477 210.524 177.054C210.875 175.492 211.43 173.952 211.394 172.342C211.362 170.884 210.842 169.452 210.988 168.002C210.99 167.912 211.015 167.825 211.062 167.752C211.107 167.701 211.163 167.663 211.224 167.64C211.589 167.472 211.964 167.333 212.346 167.226C212.572 167.162 213.344 166.862 213.56 166.996C213.736 167.105 213.79 167.754 213.877 167.974C214.032 168.364 214.239 168.725 214.386 169.118Z" fill="#A1616A"/>
<path d="M188.625 125.914C191.569 125.914 193.956 123.248 193.956 119.959C193.956 116.67 191.569 114.004 188.625 114.004C185.681 114.004 183.295 116.67 183.295 119.959C183.295 123.248 185.681 125.914 188.625 125.914Z" fill="#A1616A"/>
<path d="M193.401 124.269C193.401 124.648 193.428 125.027 193.482 125.402C193.556 125.781 193.66 126.152 193.793 126.51C193.971 127.092 194.222 127.643 194.539 128.146C194.862 128.652 195.344 129.003 195.888 129.128C192.245 131.036 188.355 132.291 184.363 132.849C184.992 132.381 185.515 131.757 185.892 131.025C186.091 130.556 186.228 130.055 186.297 129.541C186.637 127.388 186.464 125.173 185.796 123.118C185.729 122.916 185.665 122.667 185.79 122.503C185.843 122.442 185.908 122.395 185.979 122.365C187.562 121.617 189.272 121.26 190.991 121.321C191.43 121.325 191.869 121.346 192.307 121.382C192.542 121.401 193.063 121.345 193.25 121.538C193.473 121.768 193.361 122.482 193.368 122.794L193.401 124.269Z" fill="#A1616A"/>
<path d="M196.222 128.601C195.438 127.479 194.34 126.682 193.103 126.337C191.866 125.993 190.562 126.121 189.398 126.702C186.861 128.055 185.611 131.304 183.38 133.215C182.872 133.639 182.331 134.012 181.764 134.327C181.429 134.534 181.072 134.692 180.701 134.797C180.284 134.9 179.848 134.886 179.433 134.997C178.642 135.257 177.968 135.841 177.546 136.633C177.337 137.047 177.106 137.446 176.853 137.829C176.619 138.138 176.33 138.388 176.083 138.684C175.196 139.749 174.955 141.279 174.753 142.716C174.058 143.533 173.301 144.279 172.489 144.947C172.233 145.166 171.95 145.341 171.648 145.467C170.867 145.749 170.006 145.39 169.341 144.853C168.675 144.316 168.133 143.608 167.477 143.057C166.875 144.019 166.245 144.985 165.602 145.915C165.505 146.092 165.358 146.228 165.183 146.299C165.062 146.753 165.352 147.222 165.568 147.629L166.731 149.811C167.115 150.605 167.586 151.343 168.134 152.007C168.689 152.675 169.448 153.087 170.261 153.163C170.774 153.158 171.282 153.049 171.761 152.842C173.976 152.01 176.01 150.682 178.117 149.553C178.498 149.309 178.926 149.169 179.365 149.144C179.584 149.137 179.8 149.211 179.978 149.355C180.156 149.498 180.287 149.703 180.351 149.937C180.593 151.3 180.833 152.658 181.165 153.998C181.479 155.261 181.77 156.53 182.038 157.806C182.218 158.587 182.346 159.381 182.422 160.183C182.457 160.638 182.461 161.096 182.464 161.552L182.509 167.073C182.514 167.668 182.211 168.038 181.977 168.572C181.619 169.401 181.566 170.353 181.827 171.226C181.958 171.656 182.163 172.054 182.308 172.479C182.66 173.507 182.646 174.638 182.628 175.737L182.586 178.257C182.575 178.361 182.592 178.466 182.634 178.56C182.772 178.8 183.104 178.66 183.314 178.497L184.368 177.681C185.779 177.898 187.204 177.975 188.627 177.911C192.674 177.845 196.722 178.025 200.759 178.341C202.106 178.446 203.499 178.56 204.772 178.058C205.418 177.804 206.014 177.396 206.674 177.192C206.947 177.145 207.205 177.026 207.429 176.845C207.798 176.463 207.7 175.793 207.549 175.256C207.418 174.786 207.268 174.324 207.1 173.868C206.928 173.449 206.787 173.015 206.68 172.57C206.478 171.565 206.674 170.404 206.114 169.585C204.861 167.754 205.748 164.936 205.222 162.706C205.052 161.985 204.8 161.289 204.641 160.565C204.541 160.11 204.477 159.646 204.414 159.183C204.249 158.182 204.167 157.166 204.17 156.147C204.185 155.638 204.242 155.131 204.3 154.625L204.698 151.113C205.196 152.152 205.542 153.273 205.723 154.433C206.085 156.167 206.532 157.877 207.06 159.557C207.36 160.57 207.66 161.583 207.984 162.586C208.19 163.157 208.348 163.748 208.457 164.352C208.529 164.839 208.531 165.335 208.581 165.825C208.69 166.876 209.019 167.883 209.542 168.765C209.638 168.97 209.798 169.128 209.991 169.211C210.122 169.238 210.256 169.232 210.384 169.193C211.792 168.883 213.154 168.356 214.432 167.629C214.704 167.503 214.94 167.297 215.115 167.032C215.459 166.408 215.075 165.627 214.907 164.917C214.728 164.157 214.77 163.242 214.234 162.733C212.367 160.958 213.294 157.355 212.36 154.823C212.196 154.379 212.004 153.946 211.863 153.492C211.755 153.145 211.676 152.788 211.598 152.431C210.945 149.482 210.247 146.547 209.503 143.625C208.732 140.595 208.815 137.439 207.844 134.482C207.661 133.862 207.423 133.264 207.132 132.698C206.804 132.107 206.365 131.602 205.845 131.217C204.436 130.176 203.014 129.29 201.358 128.912C199.703 128.534 197.911 128.593 196.222 128.601Z" fill="#D6E3F2"/>
<path d="M183.781 121.416C183.064 120.985 183.253 119.814 183.131 118.915C182.881 117.066 181.01 115.968 180.571 114.163C181.075 114.232 181.587 114.151 182.055 113.928C182.145 113.329 182.039 112.713 181.756 112.194C183.294 111.496 184.54 110.125 186.102 109.496C188.067 108.705 190.255 109.19 192.238 109.926C193.227 110.293 194.256 110.77 194.854 111.724C195.51 112.771 195.5 114.15 195.465 115.428C195.41 117.432 195.339 119.509 194.54 121.305C193.523 123.592 190.643 125.71 188.264 125.091C187.274 124.833 186.983 124.139 186.566 123.178C186.306 122.58 186.209 121.886 185.624 121.575C185.053 121.271 184.361 121.765 183.781 121.416Z" fill="#2F2E41"/>
<g opacity="0.1">
<path opacity="0.1" d="M205.397 164.115C205.403 164.273 205.407 164.432 205.409 164.592C205.402 164.435 205.398 164.275 205.397 164.115Z" fill="black"/>
<path opacity="0.1" d="M182.308 170.097C182.66 171.124 182.646 172.256 182.628 173.355C182.623 173.642 182.618 173.929 182.613 174.216C182.591 173.623 182.488 173.038 182.308 172.479C182.163 172.054 181.958 171.656 181.827 171.226C181.602 170.473 181.61 169.658 181.85 168.911C181.982 169.316 182.171 169.695 182.308 170.097Z" fill="black"/>
</g>
<g opacity="0.1">
<path opacity="0.1" d="M182.055 113.062L182.05 113.064C182.001 112.756 181.901 112.461 181.756 112.194C181.846 112.153 181.935 112.11 182.024 112.064C182.094 112.391 182.104 112.731 182.055 113.062Z" fill="black"/>
</g>
<path d="M14.074 100.922L12.8176 99.6558C8.356 95.0794 5.41048 92.1092 5.41048 88.4092C5.39943 87.7052 5.51492 87.0059 5.7501 86.3526C5.98528 85.6994 6.33538 85.1055 6.77967 84.6062C7.22397 84.1068 7.75342 83.7121 8.3367 83.4454C8.91998 83.1787 9.54522 83.0454 10.1754 83.0535C10.9191 83.0579 11.6531 83.2431 12.3263 83.5963C12.9996 83.9494 13.5959 84.462 14.074 85.0985C14.5521 84.462 15.1485 83.9494 15.8217 83.5963C16.4949 83.2431 17.2289 83.0579 17.9726 83.0535C18.6028 83.0454 19.2281 83.1787 19.8113 83.4454C20.3946 83.7121 20.9241 84.1068 21.3684 84.6062C21.8127 85.1055 22.1628 85.6994 22.3979 86.3526C22.6331 87.0059 22.7486 87.7052 22.7376 88.4091C22.7376 92.1092 19.792 95.0795 15.3304 99.6557L14.074 100.922Z" fill="#FF6584"/>
<path d="M16.3021 97.7216L15.0457 96.4554C10.5841 91.8791 7.63856 88.9088 7.63856 85.2088C7.62751 84.5048 7.74299 83.8055 7.97818 83.1523C8.21336 82.4991 8.56346 81.9052 9.00775 81.4058C9.45204 80.9064 9.9815 80.5117 10.5648 80.245C11.1481 79.9783 11.7733 79.8451 12.4035 79.8532C13.1472 79.8576 13.8812 80.0428 14.5544 80.3959C15.2276 80.7491 15.824 81.2616 16.3021 81.8981C16.7802 81.2616 17.3765 80.749 18.0498 80.3959C18.723 80.0428 19.457 79.8576 20.2007 79.8532C20.8309 79.8451 21.4561 79.9783 22.0394 80.245C22.6227 80.5117 23.1521 80.9064 23.5964 81.4058C24.0407 81.9052 24.3908 82.4991 24.626 83.1523C24.8612 83.8055 24.9767 84.5048 24.9656 85.2088C24.9656 88.9089 22.0201 91.8791 17.5585 96.4554L16.3021 97.7216Z" stroke="#3F3D56" stroke-width="2" stroke-miterlimit="10"/>
</g>
<defs>
<filter id="filter0_d" x="0" y="0" width="326" height="264" filterUnits="userSpaceOnUse" color-interpolation-filters="sRGB">
<feFlood flood-opacity="0" result="BackgroundImageFix"/>
<feColorMatrix in="SourceAlpha" type="matrix" values="0 0 0 0 0 0 0 0 0 0 0 0 0 0 0 0 0 0 127 0" result="hardAlpha"/>
<feOffset dx="10" dy="10"/>
<feGaussianBlur stdDeviation="2"/>
<feColorMatrix type="matrix" values="0 0 0 0 0 0 0 0 0 0 0 0 0 0 0 0 0 0 0.25 0"/>
<feBlend mode="normal" in2="BackgroundImageFix" result="effect1_dropShadow"/>
<feBlend mode="normal" in="SourceGraphic" in2="effect1_dropShadow" result="shape"/>
</filter>
<clipPath id="clip0">
<rect width="312" height="250" fill="white"/>
</clipPath>
</defs>
</svg>
